<?xml version="1.0" standalone="no"?>
<!DOCTYPE svg PUBLIC "-//W3C//DTD SVG 20010904//EN"
 "http://www.w3.org/TR/2001/REC-SVG-20010904/DTD/svg10.dtd">
<svg version="1.0" xmlns="http://www.w3.org/2000/svg"
 width="64.000000pt" height="64.000000pt" viewBox="0 0 64.000000 64.000000"
 preserveAspectRatio="xMidYMid meet">

<g transform="translate(0.000000,64.000000) scale(0.100000,-0.100000)"
fill="#000000" stroke="none">
<path d="M121 556 c-77 -28 -95 -104 -37 -162 19 -19 41 -34 51 -34 9 0 13 -4
10 -10 -3 -5 -15 -10 -25 -10 -11 0 -35 -14 -55 -31 -31 -28 -35 -36 -35 -81
0 -45 4 -54 35 -84 45 -42 71 -46 325 -42 l205 3 3 67 c2 42 -1 68 -7 68 -6 0
-22 -22 -35 -49 -14 -27 -32 -51 -41 -55 -9 -3 -48 -6 -85 -6 -85 0 -90 7 -90
119 l0 81 40 0 c43 0 90 -34 90 -65 0 -8 7 -15 15 -15 12 0 15 17 15 90 0 98
-14 118 -41 58 -13 -31 -18 -33 -66 -36 l-53 -3 0 90 0 91 66 0 c78 0 95 -8
123 -55 11 -20 26 -33 31 -30 6 3 10 31 10 61 l0 54 -207 -1 c-137 0 -220 -5
-242 -13z m137 -28 c7 -7 12 -43 12 -90 l0 -78 -41 0 c-85 0 -132 98 -74 155
26 27 82 34 103 13z m12 -286 c0 -55 -4 -92 -12 -100 -16 -16 -88 -15 -109 1
-25 19 -39 53 -39 94 1 63 36 92 113 93 l47 0 0 -88z"/>
</g>
</svg>
